<?xml version="1.0" encoding="UTF-8"?>
<svg version="1.1" xmlns="http://www.w3.org/2000/svg" width="2048" height="2048">
<path d="M0 0 C2.7015733 0.27154673 5.40406022 0.5324218 8.10675049 0.79260254 C99.93237473 9.73798999 190.31497405 30.19680895 331.55157471 86.25646973 C333.82215136 87.29088749 336.09299117 88.3247278 338.36407471 89.35803223 C362.78808255 100.52558844 386.76978604 112.36266194 410.02618408 125.81018066 C413.11931261 127.58161274 416.24216727 129.29411981 419.37091064 131.00158691 C457.60022058 151.90529826 493.88469819 176.90964358 528.55157471 203.25646973 C529.53190674 203.99896973 529.53190674 203.99896973 530.53204346 204.75646973 C539.34345392 211.43323977 548.04401838 218.19532946 556.55157471 225.25646973 C558.32201306 226.69445616 560.09285667 228.13194377 561.86407471 229.56896973 C571.21981922 237.22731488 580.37035252 245.12138706 589.32501221 253.24475098 C591.38261862 255.10381642 593.46004234 256.9357533 595.55157471 258.75646973 C600.26565323 262.8719351 604.9282234 267.0392236 609.55157471 271.25646973 C610.05495361 271.71328125 610.55833252 272.17009277 611.07696533 272.64074707 C621.3813521 282.0262118 631.25163234 291.84945531 641.11407471 301.69396973 C641.77427612 302.35158295 642.43447754 303.00919617 643.11468506 303.68673706 C655.85334744 316.38603374 655.85334744 316.38603374 661.06304932 322.51843262 C663.78465268 325.69624045 666.68255447 328.71225731 669.55157471 331.75646973 C674.3182504 336.84262603 679.02340072 341.95566994 683.55157471 347.25646973 C684.40622314 348.2438916 685.26087158 349.23131348 686.14141846 350.24865723 C697.98201489 363.95159583 709.45239354 377.94695849 720.55157471 392.25646973 C721.74460205 393.78594238 721.74460205 393.78594238 722.96173096 395.34631348 C746.15711413 425.25515715 768.17422428 456.42127622 787.29034424 489.11047363 C788.82475255 491.72128452 790.39272262 494.31067431 791.96417236 496.89929199 C835.83515707 569.30513137 869.89070714 647.35367641 931.80157471 922.38146973 C931.87879761 923.14284241 931.95602051 923.90421509 932.0355835 924.68865967 C932.62055304 930.53883328 933.1082195 936.39394104 933.55157471 942.25646973 C933.6823793 943.97531372 933.6823793 943.97531372 933.81582642 945.72888184 C935.57381754 969.67298002 935.91571149 993.56275239 935.86963272 1017.56506729 C935.86398791 1020.55240177 935.86117029 1023.53973057 935.85855103 1026.52706909 C935.8231104 1054.33393597 935.58518492 1082.02850337 932.80480957 1109.72106934 C932.53820956 1112.3902823 932.28417197 1115.0605084 932.03155518 1117.7310791 C923.24816284 1209.53450139 902.58931116 1300.07722367 846.55157471 1441.25646973 C845.50549953 1443.5505116 844.45993969 1445.84478852 843.41485596 1448.13928223 C832.35725008 1472.30077114 820.59748144 1496.10098268 807.55157471 1519.25646973 C806.97826416 1520.27418457 806.40495361 1521.29189941 805.81427002 1522.3404541 C778.24002959 1571.08803659 746.77542998 1617.70140695 711.55157471 1661.25646973 C711.08380615 1661.83767578 710.6160376 1662.41888184 710.13409424 1663.0177002 C700.25053684 1675.29651543 690.15537704 1687.35389409 679.56329346 1699.02990723 C677.70422802 1701.08751364 675.87229113 1703.16493736 674.05157471 1705.25646973 C669.93554802 1709.96983362 665.77758312 1714.64133962 661.55157471 1719.25646973 C661.05174072 1719.80287109 660.55190674 1720.34927246 660.03692627 1720.91223145 C650.62763934 1731.1510879 640.8731522 1741.04059389 631.05157471 1750.88146973 C630.44357025 1751.49206238 629.8355658 1752.10265503 629.20913696 1752.73175049 C617.23425353 1764.74683098 617.23425353 1764.74683098 611.16876221 1769.8536377 C609.37482824 1771.40978875 607.71400023 1773.0612737 606.05157471 1774.75646973 C603.06285134 1777.79241897 599.93450992 1780.60155631 596.70782471 1783.38146973 C594.35194513 1785.43006066 592.04650011 1787.52849974 589.73907471 1789.63146973 C585.45034983 1793.50241927 581.03048765 1797.17018867 576.53985596 1800.80334473 C573.14406754 1803.59099848 569.81495809 1806.44869294 566.48907471 1809.31896973 C560.94005285 1814.09490115 555.31834396 1818.74403195 549.55157471 1823.25646973 C548.93363037 1823.74309082 548.31568604 1824.22971191 547.67901611 1824.7310791 C536.14202149 1833.81310544 524.41865217 1842.61136759 512.55157471 1851.25646973 C511.77749268 1851.82285156 511.00341064 1852.3892334 510.20587158 1852.97277832 C500.80892885 1859.84690624 491.33702926 1866.55867379 481.58868408 1872.92590332 C479.35974189 1874.38176801 477.13551313 1875.84470529 474.91094971 1877.30725098 C447.5324135 1895.25624767 419.46121687 1911.89339117 390.55157471 1927.25646973 C389.63118408 1927.74824707 388.71079346 1928.24002441 387.76251221 1928.7467041 C311.59774499 1969.37876297 230.18485747 1999.36114042 4.9230957 2042.0435791 C2.57876086 2042.25402923 0.2363677 2042.47976979 -2.10614014 2042.70959473 C-59.3875419 2048.24535912 -119.64958268 2048.25904048 -176.9130249 2042.50970459 C-179.58223787 2042.24310458 -182.25246397 2041.98906699 -184.92303467 2041.7364502 C-267.50302494 2033.83551976 -348.10223584 2015.87126001 -426.5022583 1988.9251709 C-428.28798893 1988.31159551 -430.07470262 1987.70088314 -431.86151123 1987.0904541 C-521.20797237 1956.40127718 -605.50928965 1910.75690658 -682.44842529 1856.25646973 C-683.22653564 1855.70555664 -684.004646 1855.15464355 -684.80633545 1854.58703613 C-696.26554376 1846.45082694 -707.4246737 1837.97239176 -718.44842529 1829.25646973 C-719.82901123 1828.16592285 -719.82901123 1828.16592285 -721.23748779 1827.05334473 C-723.65062275 1825.13252159 -726.05093232 1823.19678311 -728.44842529 1821.25646973 C-729.02238037 1820.79450195 -729.59633545 1820.33253418 -730.18768311 1819.85656738 C-742.47387342 1809.96715037 -754.53886588 1799.8666075 -766.22186279 1789.26818848 C-768.2794692 1787.40912304 -770.35689293 1785.57718615 -772.44842529 1783.75646973 C-777.16178918 1779.64044304 -781.83329519 1775.48247814 -786.44842529 1771.25646973 C-786.99482666 1770.75663574 -787.54122803 1770.25680176 -788.10418701 1769.74182129 C-798.34304347 1760.33253436 -808.23254946 1750.57804722 -818.07342529 1740.75646973 C-818.68401794 1740.14846527 -819.2946106 1739.54046082 -819.92370605 1738.91403198 C-831.93878654 1726.93914855 -831.93878654 1726.93914855 -837.04559326 1720.87365723 C-838.60174432 1719.07972326 -840.25322927 1717.41889525 -841.94842529 1715.75646973 C-844.98437454 1712.76774636 -847.79351188 1709.63940494 -850.57342529 1706.41271973 C-852.62201623 1704.05684015 -854.72045531 1701.75139513 -856.82342529 1699.44396973 C-860.69437484 1695.15524485 -864.36214424 1690.73538267 -867.99530029 1686.24475098 C-870.78295405 1682.84896256 -873.64064851 1679.51985311 -876.51092529 1676.19396973 C-881.28685671 1670.64494787 -885.93598752 1665.02323898 -890.44842529 1659.25646973 C-890.93504639 1658.63852539 -891.42166748 1658.02058105 -891.92303467 1657.38391113 C-901.005061 1645.84691651 -909.80332316 1634.12354719 -918.44842529 1622.25646973 C-919.01480713 1621.4823877 -919.58118896 1620.70830566 -920.16473389 1619.9107666 C-927.01251904 1610.54983448 -933.69630521 1601.11460567 -940.04071045 1591.40490723 C-941.61954467 1588.99530938 -943.21180595 1586.59482964 -944.80389404 1584.19396973 C-992.35950435 1512.20395535 -1030.71080181 1434.26208431 -1108.69842529 1120.13146973 C-1108.77564819 1119.37009705 -1108.85287109 1118.60872437 -1108.93243408 1117.82427979 C-1109.5174043 1111.97409944 -1110.00405984 1106.11892132 -1110.44842529 1100.25646973 C-1110.53596069 1099.11456177 -1110.62349609 1097.97265381 -1110.71368408 1096.79614258 C-1112.43317506 1073.56456162 -1112.76404821 1050.39619502 -1112.70916748 1027.10705566 C-1112.69777398 1022.23368996 -1112.70456134 1017.36054281 -1112.71604538 1012.48718452 C-1112.76298326 989.00456506 -1112.24352346 965.67370287 -1110.44842529 942.25646973 C-1110.37281372 941.25893677 -1110.29720215 940.26140381 -1110.21929932 939.23364258 C-1109.78179741 933.60872536 -1109.26772858 927.99446751 -1108.69842529 922.38146973 C-1108.61572388 921.55226013 -1108.53302246 920.72305054 -1108.44781494 919.86871338 C-1099.65366801 832.33070163 -1080.20129091 745.66325434 -1023.44842529 601.25646973 C-1022.94488525 600.14787598 -1022.44134521 599.03928223 -1021.92254639 597.89709473 C-1010.67110886 573.19999901 -998.67303043 548.95726944 -985.44842529 525.25646973 C-984.93312256 524.3277002 -984.41781982 523.39893066 -983.88690186 522.4420166 C-960.16313221 479.72463199 -932.97740662 439.16234206 -903.44842529 400.25646973 C-903.00369873 399.66994629 -902.55897217 399.08342285 -902.10076904 398.47912598 C-896.37362835 390.9398154 -890.47732934 383.55742977 -884.44842529 376.25646973 C-883.01083228 374.4857119 -881.57333362 372.71487747 -880.13592529 370.94396973 C-870.33098938 358.95825121 -860.12258688 347.29497081 -849.74530029 335.80334473 C-848.29286688 334.19282332 -846.84441854 332.57869115 -845.40155029 330.95959473 C-843.09791013 328.37882493 -840.77667682 325.81506577 -838.44842529 323.25646973 C-837.76755859 322.50575195 -837.76755859 322.50575195 -837.07293701 321.73986816 C-827.6843875 311.43270436 -817.85835792 301.55933561 -808.01092529 291.69396973 C-807.35331207 291.03376831 -806.69569885 290.37356689 -806.01815796 289.69335938 C-793.3592876 276.99524863 -793.3592876 276.99524863 -787.20452881 271.76745605 C-783.90353143 268.92721238 -780.78976558 265.88281151 -777.63592529 262.88146973 C-772.25593959 257.79583354 -766.80338742 252.96568436 -761.01092529 248.35412598 C-758.2869557 246.12429111 -755.71507344 243.77692854 -753.13592529 241.38146973 C-748.52571172 237.13849934 -743.72915571 233.2577031 -738.77679443 229.43054199 C-734.77800873 226.33136084 -730.90422603 223.12265039 -727.07342529 219.81896973 C-720.49105778 214.17722695 -713.60021618 208.99691353 -706.62127686 203.85852051 C-704.37876691 202.20511037 -702.14362729 200.54209528 -699.90936279 198.87756348 C-661.87960705 170.60484056 -622.05141037 144.95073061 -580.44842529 122.25646973 C-579.32968018 121.64561523 -578.21093506 121.03476074 -577.05828857 120.40539551 C-500.39203107 78.66858173 -418.92577483 46.97575942 -181.86138916 0.48364258 C-179.50190339 0.26150452 -177.14365362 0.0287646 -174.78533936 -0.20544434 C-117.53384734 -5.7699946 -57.23400404 -5.75977045 0 0 Z " fill="#CC0000" transform="translate(1112.4484252929688,2.7435302734375)"/>
<path d="M0 0 C0.97457153 0.00098946 1.94914307 0.00197891 2.95324707 0.00299835 C9.57180014 0.01181136 16.1901383 0.03805683 22.80859375 0.07421875 C23.65866941 0.07782976 24.50874508 0.08144077 25.38458061 0.08516121 C41.7066635 0.16347357 58.0351366 0.67654024 74.296875 2.14453125 C75.61546509 2.25897583 75.61546509 2.25897583 76.96069336 2.37573242 C79.74517368 2.61978263 82.52888761 2.87125243 85.3125 3.125 C86.2859436 3.21308929 87.25938721 3.30117859 88.2623291 3.39193726 C119.22415631 6.20765084 149.73820121 10.39259385 180.33343506 15.91082764 C182.36980348 16.27777653 184.40679441 16.64126653 186.44384766 17.00439453 C202.52918479 19.88942415 218.36977618 23.56167163 234.22851562 27.49560547 C238.15660196 28.45806716 242.09509115 29.3693652 246.03637695 30.27587891 C255.95718513 32.57198975 265.68986226 35.28935628 275.40771484 38.32714844 C277.73237701 39.05322308 280.05807697 39.77524115 282.38525391 40.49316406 C367.54508896 66.77515879 448.60435521 102.17479475 599.5625 203.3125 C599.65912242 204.74600065 599.68621827 206.18425002 599.68554783 207.62100315 C599.68753888 208.55654421 599.68952993 209.49208528 599.69158131 210.45597607 C599.68866847 211.49583737 599.68575563 212.53569867 599.68275452 213.60707092 C599.68360894 214.70231738 599.68446337 215.79756384 599.68534368 216.92599958 C599.68700171 220.62654523 599.68147186 224.32704637 599.67602539 228.02758789 C599.67574356 230.66809695 599.67585705 233.30860322 599.6764679 235.94911194 C599.67699332 241.64965851 599.6738446 247.35019368 599.66823006 253.05073738 C599.66011754 261.29285813 599.65750009 269.53497333 599.65624207 277.77709763 C599.65405115 291.14803241 599.64739001 304.51896111 599.63793945 317.88989258 C599.62876635 330.88175425 599.62168502 343.87361426 599.61743164 356.86547852 C599.61716892 357.66573061 599.61690619 358.4659827 599.61663551 359.29048485 C599.61533051 363.3049453 599.61406679 367.31940577 599.61282361 371.33386624 C599.60244977 404.66008191 599.5848304 437.98629021 599.5625 471.3125 C598.44085006 470.3559578 597.31988888 469.39860792 596.19921875 468.44091797 C595.26275513 467.64136185 595.26275513 467.64136185 594.30737305 466.82565308 C592.31636508 465.09905192 590.42190779 463.30492248 588.5625 461.4375 C587.964375 460.84195312 587.36625 460.24640625 586.75 459.6328125 C584.87806019 457.6472192 583.09127866 455.62345928 581.30859375 453.55859375 C577.58336004 449.27849576 573.64768257 445.24940765 569.625 441.25 C568.62823242 440.24743164 568.62823242 440.24743164 567.61132812 439.22460938 C563.66265178 435.28359293 559.59593968 431.54877025 555.37280273 427.90454102 C552.9921069 425.81087715 550.77363363 423.583394 548.5625 421.3125 C545.0507345 417.76331843 541.47241099 414.39281543 537.6796875 411.1484375 C535.15650545 408.9604383 532.70695481 406.69956887 530.25 404.4375 C525.70725315 400.29004742 521.02130038 396.38017305 516.234375 392.51953125 C513.6639095 390.39626662 511.20330637 388.19438151 508.75 385.9375 C503.78179677 381.41596488 498.55446423 377.30097794 493.25 373.1875 C490.20175817 370.82237367 487.19699264 368.40841208 484.20068359 365.97802734 C475.64653714 359.05280635 466.83346423 352.50980778 457.93261719 346.03857422 C455.68129519 344.39901442 453.43755822 342.74959646 451.1953125 341.09765625 C398.40171785 302.37278295 340.74560973 269.98850459 280.5625 244.3125 C279.92723389 244.0413739 279.29196777 243.7702478 278.63745117 243.49090576 C262.2775959 236.5265325 245.68807391 230.32388447 228.89892578 224.47802734 C225.6660941 223.34868895 222.43980584 222.20237343 219.21484375 221.05078125 C210.00237322 217.77611133 200.85585133 214.67032544 191.3671875 212.29296875 C188.57678444 211.57388131 185.82909186 210.81289746 183.0703125 209.98828125 C162.16799247 203.7509622 140.82959387 199.25954204 119.4375 195.0625 C118.25559082 194.82853516 117.07368164 194.59457031 115.85595703 194.35351562 C75.79699384 186.66448598 34.8603306 183.82266029 -5.87730026 183.75521469 C-8.02089057 183.7500993 -10.16434081 183.73793622 -12.30789185 183.72427368 C-37.29419694 183.5921369 -62.05024435 185.58438947 -86.33789062 191.77832031 C-88.5800909 192.34877778 -90.82853616 192.88915354 -93.078125 193.4296875 C-123.86969558 200.98987891 -154.32792965 214.42591041 -178.4375 235.3125 C-179.241875 236.00730469 -180.04625 236.70210937 -180.875 237.41796875 C-183.43435775 239.67740176 -185.94108485 241.98378297 -188.4375 244.3125 C-189.31277344 245.11042969 -190.18804688 245.90835938 -191.08984375 246.73046875 C-210.31977947 264.96717967 -222.39780713 288.88076584 -229.25 314.1875 C-229.5608252 315.32795776 -229.5608252 315.32795776 -229.87792969 316.49145508 C-232.60778137 327.10127912 -232.67665788 337.78128822 -232.6875 348.6875 C-232.68850708 349.39392639 -232.68951416 350.10035278 -232.69055176 350.82818604 C-232.68004473 361.76754464 -232.06500891 372.367225 -229.88183594 383.109375 C-229.43650335 385.31744165 -229.0479774 387.53052253 -228.6640625 389.75 C-221.42357978 428.93911271 -195.71544831 464.43531156 -164.4375 488.3125 C-163.81697754 488.78768066 -163.19645508 489.26286133 -162.55712891 489.75244141 C-150.43416072 498.96450278 -137.70066551 506.85457857 -124.4375 514.3125 C-123.66390137 514.75158691 -122.89030273 515.19067383 -122.09326172 515.64306641 C-91.58069206 532.82691963 -57.49571083 545.41325484 -24.04296875 555.52246094 C-21.35741793 556.33678276 -18.67848063 557.17054917 -16 558.0078125 C25.81546031 571.01397128 68.5074902 581.66076639 111.23469543 591.20681763 C118.56050161 592.84387497 125.84980487 594.58901266 133.125 596.4375 C147.70766633 600.13927273 162.374591 603.46234131 177.04882812 606.77929688 C180.86632802 607.64258361 184.68331379 608.50812338 188.5 609.375 C189.25696167 609.54686829 190.01392334 609.71873657 190.79382324 609.89581299 C200.01020658 611.99251667 209.1904281 614.17280205 218.31103516 616.65820312 C223.46860359 618.05646133 228.65148004 619.24964758 233.875 620.375 C240.21535665 621.74497234 246.42455583 623.3528573 252.6484375 625.19140625 C257.52782254 626.61402379 262.45366913 627.85705346 267.375 629.125 C348.79834855 650.2580811 431.51608228 676.83888472 540.5625 744.3125 C541.27196777 744.8394043 541.98143555 745.36630859 542.71240234 745.90917969 C558.50736241 757.69333187 573.75945371 770.218523 587.5625 784.3125 C590.2163612 786.97983257 592.88472171 789.63051808 595.578125 792.2578125 C602.39884028 798.9411698 608.64924896 805.80025761 614.5625 813.3125 C615.49241743 814.44336279 616.42484962 815.57216091 617.359375 816.69921875 C625.12957029 826.12882031 632.00573973 836.00699869 638.5625 846.3125 C638.96033691 846.93560059 639.35817383 847.55870117 639.76806641 848.20068359 C677.83720347 908.34893006 697.47674811 981.89920869 697.765625 1052.9609375 C697.77614647 1054.70600586 697.77614647 1054.70600586 697.78688049 1056.48632812 C697.80428221 1060.22009195 697.8107327 1063.95369711 697.8125 1067.6875 C697.81351212 1069.60166718 697.81351212 1069.60166718 697.81454468 1071.55450439 C697.79051051 1100.15247035 695.42170263 1127.26432345 689.5625 1155.3125 C689.3857373 1156.17149902 689.20897461 1157.03049805 689.02685547 1157.91552734 C687.95799753 1163.06965855 686.78740083 1168.19347547 685.5625 1173.3125 C685.40910156 1173.97862305 685.25570313 1174.64474609 685.09765625 1175.33105469 C678.99133811 1201.63616486 669.62057832 1227.7185665 658.5625 1252.3125 C658.06637207 1253.4252832 657.57024414 1254.53806641 657.05908203 1255.68457031 C637.31891693 1299.75817992 611.78839026 1340.39973544 580.98632812 1377.58447266 C579.70186123 1379.1433644 578.43571063 1380.71730439 577.171875 1382.29296875 C572.27420628 1388.39743714 567.09729917 1394.17099033 561.75 1399.87890625 C559.24724256 1402.55183661 556.81148069 1405.27874186 554.37890625 1408.015625 C549.72110479 1413.20163578 544.86299321 1418.16448576 539.92358398 1423.08178711 C538.49410283 1424.50587492 537.07009489 1425.93528044 535.64648438 1427.36523438 C530.9887698 1432.0164664 526.28793939 1436.5461077 521.28979492 1440.83032227 C518.88870824 1442.89067523 516.57382303 1445.04076457 514.25 1447.1875 C508.84769817 1452.10745345 503.27472823 1456.75795002 497.5625 1461.3125 C497.03817383 1461.73112305 496.51384766 1462.14974609 495.97363281 1462.58105469 C481.56967386 1474.05827892 466.87514171 1485.07399296 451.5625 1495.3125 C450.81548828 1495.81362305 450.06847656 1496.31474609 449.29882812 1496.83105469 C401.38588491 1528.84615621 349.29593864 1554.31995803 294.5625 1572.3125 C289.97934419 1573.82869448 285.40363721 1575.36331669 280.84130859 1576.94116211 C268.42271301 1581.20710902 255.93779259 1584.75123478 243.1875 1587.875 C242.24148926 1588.10928711 241.29547852 1588.34357422 240.32080078 1588.58496094 C218.37794228 1594.01085818 196.32534256 1598.57962308 173.921875 1601.671875 C170.66926387 1602.1269035 167.45032498 1602.69385694 164.22265625 1603.30078125 C153.42091827 1605.29032974 142.49161508 1606.29887975 131.5625 1607.3125 C130.81478333 1607.38251221 130.06706665 1607.45252441 129.29669189 1607.5246582 C103.40119312 1609.91515771 77.54902077 1610.60601343 51.55915833 1610.62302017 C49.29630536 1610.6249603 47.03347656 1610.63005851 44.77062988 1610.6355896 C17.28561848 1610.68531552 -10.11476092 1609.56459123 -37.4375 1606.4375 C-38.19813751 1606.35323761 -38.95877502 1606.26897522 -39.74246216 1606.18215942 C-51.49090109 1604.87971042 -63.15094952 1603.22942781 -74.8046875 1601.2421875 C-79.44584453 1600.45509069 -84.09248008 1599.81274245 -88.76220703 1599.22167969 C-100.39168346 1597.74906898 -111.75869788 1595.49830929 -123.20800781 1593.00390625 C-126.54787178 1592.28887036 -129.89323426 1591.60861772 -133.2421875 1590.9375 C-161.87351866 1585.18512256 -190.35946675 1578.54684232 -218.17285156 1569.59521484 C-222.81077515 1568.11037178 -227.46011613 1566.74037639 -232.16040039 1565.46801758 C-261.51039958 1557.45859103 -290.23810251 1546.67387478 -318.4375 1535.3125 C-319.62633789 1534.83635254 -320.81517578 1534.36020508 -322.04003906 1533.86962891 C-371.54036605 1513.97665977 -419.5856039 1490.58252339 -465.4375 1463.3125 C-467.24074217 1462.24845512 -469.04412441 1461.18464757 -470.84765625 1460.12109375 C-480.23846847 1454.56098735 -489.45888536 1448.82074272 -498.46679688 1442.65917969 C-500.62414776 1441.18495428 -502.78846534 1439.72128291 -504.953125 1438.2578125 C-524.45770743 1425.03514743 -543.39787641 1411.27388929 -561.31640625 1395.9609375 C-565.2190048 1392.63257323 -569.20406661 1389.40892101 -573.1953125 1386.1875 C-573.93523437 1385.56875 -574.67515625 1384.95 -575.4375 1384.3125 C-575.97113153 1383.89016057 -576.50476307 1383.46782114 -577.05456525 1383.03268355 C-578.99153102 1380.62336043 -578.81022302 1378.98460654 -578.80664349 1375.91456318 C-578.81261663 1374.78693666 -578.81858978 1373.65931014 -578.82474393 1372.49751312 C-578.8160054 1371.25336629 -578.80726688 1370.00921946 -578.79826355 1368.72737122 C-578.80082682 1367.40990408 -578.8033901 1366.09243695 -578.80603105 1364.73504657 C-578.81275701 1361.07041949 -578.80071459 1357.40605415 -578.78569686 1353.74146044 C-578.77277102 1349.79260096 -578.77712351 1345.84375688 -578.77940369 1341.8948822 C-578.78097861 1335.05062663 -578.77154655 1328.2064567 -578.75469017 1321.36222267 C-578.73033439 1311.4665588 -578.72249841 1301.57093644 -578.7187262 1291.67524584 C-578.71215633 1275.62112022 -578.69218067 1259.56704027 -578.66381836 1243.51293945 C-578.63629163 1227.91561105 -578.61505127 1212.31829504 -578.60229492 1196.72094727 C-578.60150675 1195.75992286 -578.60071858 1194.79889845 -578.59990653 1193.8087521 C-578.59599148 1188.98769313 -578.59220034 1184.16663408 -578.58847082 1179.34557498 C-578.55735825 1139.334518 -578.50450791 1099.32351201 -578.4375 1059.3125 C-575.19958201 1062.47083522 -572.56718371 1065.78933389 -570 1069.5 C-553.97567318 1092.2607642 -536.14228545 1113.71660573 -517.4375 1134.3125 C-516.04160785 1135.87494746 -514.64577625 1137.43744901 -513.25 1139 C-503.7622468 1149.51477803 -494.06266036 1159.78191038 -484.0625 1169.8125 C-483.23065186 1170.64894043 -482.39880371 1171.48538086 -481.54174805 1172.34716797 C-477.25856337 1176.61963932 -472.90475583 1180.73726334 -468.31787109 1184.68164062 C-465.28411085 1187.31284271 -462.36661779 1190.06606372 -459.4375 1192.8125 C-454.51233993 1197.40411458 -449.56148754 1201.94232068 -444.4375 1206.3125 C-443.48746094 1207.12976562 -442.53742188 1207.94703125 -441.55859375 1208.7890625 C-434.84608162 1214.53749433 -427.99784771 1220.07723662 -421.0234375 1225.50390625 C-418.61215148 1227.38307815 -416.22374796 1229.2865572 -413.8515625 1231.21484375 C-405.01590936 1238.39262689 -395.93565488 1245.14733392 -386.65332031 1251.73632812 C-384.57235764 1253.21657218 -382.50001499 1254.70805938 -380.4296875 1256.203125 C-362.03448599 1269.4207867 -342.93254322 1281.78087714 -323.4375 1293.3125 C-322.50599121 1293.86583008 -321.57448242 1294.41916016 -320.61474609 1294.98925781 C-303.5507166 1305.09011099 -286.16146818 1314.43525301 -268.4375 1323.3125 C-267.50584015 1323.78009735 -267.50584015 1323.78009735 -266.55535889 1324.25714111 C-209.32787078 1352.94766706 -149.34266677 1374.28604054 -86.8125 1388.0625 C-84.8929248 1388.48547363 -84.8929248 1388.48547363 -82.93457031 1388.91699219 C-60.61240452 1393.73609272 -38.10441975 1396.66678258 -15.4375 1399.3125 C-14.69161621 1399.40033752 -13.94573242 1399.48817505 -13.17724609 1399.57867432 C77.69019291 1410.18655847 178.40434916 1398.19353995 257.96606445 1338.86914062 C262.60658121 1335.16995489 267.09664004 1331.32561922 271.44140625 1327.28125 C273.43331676 1325.43240489 275.48159756 1323.68463393 277.5625 1321.9375 C291.99589365 1309.26850918 302.77606403 1293.24406042 311.5625 1276.3125 C312.04332031 1275.39339844 312.52414062 1274.47429687 313.01953125 1273.52734375 C315.79415458 1267.82835551 317.79799896 1261.89391582 319.75 1255.875 C320.00031982 1255.1121167 320.25063965 1254.3492334 320.50854492 1253.56323242 C329.7186249 1224.10156639 325.09600811 1189.52876531 313.5625 1161.3125 C313.28067871 1160.61688965 312.99885742 1159.9212793 312.70849609 1159.20458984 C305.9882917 1143.01450051 296.08511678 1128.46923335 284.5625 1115.3125 C283.81226563 1114.44109375 283.06203125 1113.5696875 282.2890625 1112.671875 C277.69523162 1107.43522137 272.91441337 1102.75973051 267.5625 1098.3125 C266.71429687 1097.57644531 265.86609375 1096.84039063 264.9921875 1096.08203125 C252.17066877 1085.09465348 238.26178071 1075.6021732 223.5625 1067.3125 C222.70301758 1066.82668457 221.84353516 1066.34086914 220.95800781 1065.84033203 C175.50628765 1040.31792643 124.45607383 1020.99454605 74.14453125 1007.5546875 C68.5898689 1006.0680021 63.07894124 1004.43419664 57.5625 1002.8125 C45.50040282 999.27941563 33.41078009 995.87572732 21.26953125 992.625 C20.1619043 992.32843506 19.05427734 992.03187012 17.91308594 991.72631836 C15.63907293 991.11747496 13.36498445 990.50891341 11.09082031 989.90063477 C5.01221113 988.26713085 -1.03821469 986.57299206 -7.0625 984.75 C-14.74024111 982.43195844 -22.50578773 980.52353199 -30.29345703 978.61303711 C-37.74946238 976.7704881 -45.12340777 974.72013468 -52.49414062 972.56494141 C-60.19967785 970.33278181 -67.9692672 968.40706186 -75.75976562 966.49658203 C-82.39234783 964.85782999 -88.94459551 963.04765349 -95.48266602 961.06835938 C-100.16721691 959.65871728 -104.87301845 958.41120279 -109.625 957.25 C-116.2221227 955.63494667 -122.75435001 953.85512953 -129.27246094 951.94580078 C-131.82888637 951.19801463 -134.38709494 950.45647544 -136.9453125 949.71484375 C-143.1125291 947.92478088 -149.27591311 946.12183895 -155.4375 944.3125 C-156.34435547 944.04646973 -157.25121094 943.78043945 -158.18554688 943.50634766 C-167.70551231 940.70625311 -177.18281524 937.82484209 -186.56201172 934.57983398 C-191.49311683 932.89338874 -196.47590251 931.41600806 -201.48046875 929.96484375 C-209.91937375 927.50757458 -218.25210932 924.79712336 -226.5625 921.9375 C-227.29518097 921.68605225 -228.02786194 921.43460449 -228.78274536 921.17553711 C-310.1473359 893.16725169 -390.79088138 856.94364966 -456.4375 800.3125 C-457.54738281 799.35537109 -457.54738281 799.35537109 -458.6796875 798.37890625 C-460.60911899 796.70130818 -462.52354637 795.00771607 -464.4375 793.3125 C-465.11039063 792.73242188 -465.78328125 792.15234375 -466.4765625 791.5546875 C-478.56115061 780.96509998 -490.54252707 769.59040405 -500.41796875 756.890625 C-502.32442123 754.45685588 -504.3204324 752.12433727 -506.35327148 749.79589844 C-535.9978176 715.6588123 -556.05787115 673.80078469 -570.4375 631.3125 C-571.0075775 629.6770014 -571.57786313 628.04157532 -572.1484375 626.40625 C-585.47541817 587.25261814 -590.74275082 544.46965682 -591.4375 503.3125 C-591.4508136 502.60331421 -591.4641272 501.89412842 -591.47784424 501.16345215 C-592.08126401 468.4635146 -590.44975505 436.53146461 -584.4375 404.3125 C-584.26524902 403.36391113 -584.09299805 402.41532227 -583.91552734 401.43798828 C-577.23497568 365.16068048 -565.45340195 330.51166013 -549.4375 297.3125 C-548.98761719 296.37035645 -548.53773438 295.42821289 -548.07421875 294.45751953 C-532.59437541 262.15394156 -512.38247253 232.74993479 -489.4375 205.3125 C-488.73705566 204.47452881 -488.73705566 204.47452881 -488.02246094 203.61962891 C-482.40294332 196.91830838 -476.7246615 190.41960848 -470.4453125 184.3203125 C-468.51731582 182.39231582 -466.75682966 180.39618169 -465 178.3125 C-461.60680316 174.35377035 -457.81684864 170.97069218 -453.90625 167.53125 C-451.67815875 165.52878824 -449.58290874 163.46370083 -447.5 161.3125 C-443.72266002 157.48238281 -439.65144105 154.13585083 -435.45703125 150.7734375 C-433.37575919 149.07718731 -431.33963191 147.37152869 -429.32421875 145.6015625 C-414.60175286 132.67210463 -398.74176894 121.16031158 -382.4375 110.3125 C-381.78281738 109.87518555 -381.12813477 109.43787109 -380.45361328 108.98730469 C-322.45832936 70.39883866 -256.93019147 40.93843944 -189.31689453 24.04345703 C-186.51237343 23.33150721 -183.72274828 22.57834253 -180.93359375 21.80859375 C-151.74306111 13.8051581 -121.93029418 8.55302001 -91.9395752 4.64251709 C-89.55540938 4.32805194 -87.17371009 3.99892957 -84.79199219 3.66650391 C-56.62776852 -0.18693912 -28.36812597 -0.03316271 0 0 Z " fill="#FEFEFE" transform="translate(998.4375,222.6875)"/>
</svg>
